<mxfile host="app.diagrams.net" modified="2020-10-23T04:14:48.141Z" agent="5.0 (Windows NT 6.3; Win64; x64) AppleWebKit/537.36 (KHTML, like Gecko) Chrome/86.0.4240.111 Safari/537.36" etag="aPSUTW1eLDlx5qn5d8VJ" version="13.8.1" type="github">
  <diagram id="R2lEEEUBdFMjLlhIrx00" name="Page-1">
    <mxGraphModel dx="813" dy="454" grid="1" gridSize="10" guides="1" tooltips="1" connect="1" arrows="1" fold="1" page="1" pageScale="1" pageWidth="850" pageHeight="1100" math="0" shadow="0" extFonts="Permanent Marker^https://fonts.googleapis.com/css?family=Permanent+Marker">
      <root>
        <mxCell id="0" />
        <mxCell id="1" parent="0" />
        <mxCell id="ND9n42p7rbxdLXG1xanT-3" value="저자" style="rounded=0;whiteSpace=wrap;html=1;" parent="1" vertex="1">
          <mxGeometry x="340" y="220" width="80" height="80" as="geometry" />
        </mxCell>
        <mxCell id="ND9n42p7rbxdLXG1xanT-7" style="edgeStyle=orthogonalEdgeStyle;rounded=0;orthogonalLoop=1;jettySize=auto;html=1;entryX=0.5;entryY=1;entryDx=0;entryDy=0;endArrow=ERone;endFill=0;" parent="1" source="ND9n42p7rbxdLXG1xanT-8" target="ND9n42p7rbxdLXG1xanT-3" edge="1">
          <mxGeometry relative="1" as="geometry" />
        </mxCell>
        <mxCell id="ND9n42p7rbxdLXG1xanT-4" value="글" style="rounded=0;whiteSpace=wrap;html=1;" parent="1" vertex="1">
          <mxGeometry x="340" y="500" width="80" height="80" as="geometry" />
        </mxCell>
        <mxCell id="ND9n42p7rbxdLXG1xanT-6" style="edgeStyle=orthogonalEdgeStyle;rounded=1;orthogonalLoop=1;jettySize=auto;html=1;exitX=1;exitY=0.5;exitDx=0;exitDy=0;entryX=0.25;entryY=0;entryDx=0;entryDy=0;endArrow=none;endFill=0;" parent="1" source="ND9n42p7rbxdLXG1xanT-5" target="ND9n42p7rbxdLXG1xanT-3" edge="1">
          <mxGeometry relative="1" as="geometry">
            <Array as="points">
              <mxPoint x="360" y="200" />
            </Array>
          </mxGeometry>
        </mxCell>
        <mxCell id="ND9n42p7rbxdLXG1xanT-5" value="&lt;u&gt;저자 아이디&lt;/u&gt;" style="ellipse;whiteSpace=wrap;html=1;" parent="1" vertex="1">
          <mxGeometry x="240" y="170" width="80" height="60" as="geometry" />
        </mxCell>
        <mxCell id="ND9n42p7rbxdLXG1xanT-18" style="edgeStyle=orthogonalEdgeStyle;rounded=1;orthogonalLoop=1;jettySize=auto;html=1;endArrow=ERzeroToMany;endFill=1;" parent="1" source="ND9n42p7rbxdLXG1xanT-8" target="ND9n42p7rbxdLXG1xanT-4" edge="1">
          <mxGeometry relative="1" as="geometry" />
        </mxCell>
        <mxCell id="ND9n42p7rbxdLXG1xanT-8" value="작성" style="rhombus;whiteSpace=wrap;html=1;" parent="1" vertex="1">
          <mxGeometry x="340" y="360" width="80" height="80" as="geometry" />
        </mxCell>
        <mxCell id="ND9n42p7rbxdLXG1xanT-16" style="edgeStyle=orthogonalEdgeStyle;rounded=1;orthogonalLoop=1;jettySize=auto;html=1;entryX=0.5;entryY=0;entryDx=0;entryDy=0;endArrow=none;endFill=0;" parent="1" source="ND9n42p7rbxdLXG1xanT-10" target="ND9n42p7rbxdLXG1xanT-3" edge="1">
          <mxGeometry relative="1" as="geometry" />
        </mxCell>
        <mxCell id="ND9n42p7rbxdLXG1xanT-10" value="비밀번호" style="ellipse;whiteSpace=wrap;html=1;" parent="1" vertex="1">
          <mxGeometry x="340" y="130" width="80" height="60" as="geometry" />
        </mxCell>
        <mxCell id="ND9n42p7rbxdLXG1xanT-15" style="edgeStyle=orthogonalEdgeStyle;rounded=1;orthogonalLoop=1;jettySize=auto;html=1;entryX=0.75;entryY=0;entryDx=0;entryDy=0;endArrow=none;endFill=0;" parent="1" source="ND9n42p7rbxdLXG1xanT-14" target="ND9n42p7rbxdLXG1xanT-3" edge="1">
          <mxGeometry relative="1" as="geometry">
            <Array as="points">
              <mxPoint x="400" y="200" />
            </Array>
          </mxGeometry>
        </mxCell>
        <mxCell id="ND9n42p7rbxdLXG1xanT-14" value="닉네임" style="ellipse;whiteSpace=wrap;html=1;" parent="1" vertex="1">
          <mxGeometry x="440" y="170" width="80" height="60" as="geometry" />
        </mxCell>
        <mxCell id="ND9n42p7rbxdLXG1xanT-20" style="edgeStyle=orthogonalEdgeStyle;rounded=1;orthogonalLoop=1;jettySize=auto;html=1;endArrow=none;endFill=0;entryX=-0.004;entryY=0.199;entryDx=0;entryDy=0;entryPerimeter=0;" parent="1" source="ND9n42p7rbxdLXG1xanT-17" target="ND9n42p7rbxdLXG1xanT-4" edge="1">
          <mxGeometry relative="1" as="geometry">
            <Array as="points">
              <mxPoint x="260" y="516" />
            </Array>
            <mxPoint x="340" y="520" as="targetPoint" />
          </mxGeometry>
        </mxCell>
        <mxCell id="ND9n42p7rbxdLXG1xanT-17" value="&lt;u&gt;글 아이디&lt;/u&gt;" style="ellipse;whiteSpace=wrap;html=1;" parent="1" vertex="1">
          <mxGeometry x="220" y="420" width="80" height="60" as="geometry" />
        </mxCell>
        <mxCell id="ND9n42p7rbxdLXG1xanT-22" style="edgeStyle=orthogonalEdgeStyle;rounded=1;orthogonalLoop=1;jettySize=auto;html=1;entryX=-0.004;entryY=0.4;entryDx=0;entryDy=0;endArrow=none;endFill=0;entryPerimeter=0;" parent="1" source="ND9n42p7rbxdLXG1xanT-21" target="ND9n42p7rbxdLXG1xanT-4" edge="1">
          <mxGeometry relative="1" as="geometry">
            <Array as="points">
              <mxPoint x="240" y="500" />
              <mxPoint x="240" y="532" />
            </Array>
          </mxGeometry>
        </mxCell>
        <mxCell id="ND9n42p7rbxdLXG1xanT-21" value="저자 아이디" style="ellipse;whiteSpace=wrap;html=1;" parent="1" vertex="1">
          <mxGeometry x="140" y="470" width="80" height="60" as="geometry" />
        </mxCell>
        <mxCell id="ND9n42p7rbxdLXG1xanT-24" style="edgeStyle=orthogonalEdgeStyle;rounded=1;orthogonalLoop=1;jettySize=auto;html=1;entryX=0.002;entryY=0.6;entryDx=0;entryDy=0;endArrow=none;endFill=0;entryPerimeter=0;" parent="1" source="ND9n42p7rbxdLXG1xanT-23" target="ND9n42p7rbxdLXG1xanT-4" edge="1">
          <mxGeometry relative="1" as="geometry">
            <Array as="points">
              <mxPoint x="240" y="580" />
              <mxPoint x="240" y="548" />
            </Array>
          </mxGeometry>
        </mxCell>
        <mxCell id="ND9n42p7rbxdLXG1xanT-23" value="주제" style="ellipse;whiteSpace=wrap;html=1;" parent="1" vertex="1">
          <mxGeometry x="140" y="550" width="80" height="60" as="geometry" />
        </mxCell>
        <mxCell id="ND9n42p7rbxdLXG1xanT-28" style="edgeStyle=orthogonalEdgeStyle;rounded=1;orthogonalLoop=1;jettySize=auto;html=1;entryX=0.5;entryY=1;entryDx=0;entryDy=0;endArrow=none;endFill=0;" parent="1" source="ND9n42p7rbxdLXG1xanT-25" target="ND9n42p7rbxdLXG1xanT-4" edge="1">
          <mxGeometry relative="1" as="geometry" />
        </mxCell>
        <mxCell id="ND9n42p7rbxdLXG1xanT-25" value="화자" style="ellipse;whiteSpace=wrap;html=1;" parent="1" vertex="1">
          <mxGeometry x="340" y="740" width="80" height="60" as="geometry" />
        </mxCell>
        <mxCell id="ND9n42p7rbxdLXG1xanT-27" style="edgeStyle=orthogonalEdgeStyle;rounded=1;orthogonalLoop=1;jettySize=auto;html=1;entryX=-0.001;entryY=0.801;entryDx=0;entryDy=0;endArrow=none;endFill=0;entryPerimeter=0;" parent="1" source="ND9n42p7rbxdLXG1xanT-26" target="ND9n42p7rbxdLXG1xanT-4" edge="1">
          <mxGeometry relative="1" as="geometry">
            <Array as="points">
              <mxPoint x="260" y="564" />
            </Array>
          </mxGeometry>
        </mxCell>
        <mxCell id="ND9n42p7rbxdLXG1xanT-26" value="제목" style="ellipse;whiteSpace=wrap;html=1;" parent="1" vertex="1">
          <mxGeometry x="220" y="610" width="80" height="60" as="geometry" />
        </mxCell>
        <mxCell id="ND9n42p7rbxdLXG1xanT-30" style="edgeStyle=orthogonalEdgeStyle;rounded=1;orthogonalLoop=1;jettySize=auto;html=1;entryX=1;entryY=0.75;entryDx=0;entryDy=0;endArrow=none;endFill=0;" parent="1" source="ND9n42p7rbxdLXG1xanT-29" target="ND9n42p7rbxdLXG1xanT-4" edge="1">
          <mxGeometry relative="1" as="geometry">
            <Array as="points">
              <mxPoint x="480" y="610" />
              <mxPoint x="480" y="560" />
            </Array>
          </mxGeometry>
        </mxCell>
        <mxCell id="ND9n42p7rbxdLXG1xanT-29" value="작성일" style="ellipse;whiteSpace=wrap;html=1;" parent="1" vertex="1">
          <mxGeometry x="500" y="590" width="80" height="60" as="geometry" />
        </mxCell>
        <mxCell id="ND9n42p7rbxdLXG1xanT-34" style="edgeStyle=orthogonalEdgeStyle;rounded=1;orthogonalLoop=1;jettySize=auto;html=1;entryX=1;entryY=0.5;entryDx=0;entryDy=0;endArrow=none;endFill=0;" parent="1" source="ND9n42p7rbxdLXG1xanT-31" target="ND9n42p7rbxdLXG1xanT-4" edge="1">
          <mxGeometry relative="1" as="geometry" />
        </mxCell>
        <mxCell id="ND9n42p7rbxdLXG1xanT-31" value="조회수" style="ellipse;whiteSpace=wrap;html=1;" parent="1" vertex="1">
          <mxGeometry x="540" y="510" width="80" height="60" as="geometry" />
        </mxCell>
        <mxCell id="ND9n42p7rbxdLXG1xanT-33" style="edgeStyle=orthogonalEdgeStyle;rounded=1;orthogonalLoop=1;jettySize=auto;html=1;entryX=1;entryY=0.25;entryDx=0;entryDy=0;endArrow=none;endFill=0;" parent="1" source="ND9n42p7rbxdLXG1xanT-32" target="ND9n42p7rbxdLXG1xanT-4" edge="1">
          <mxGeometry relative="1" as="geometry">
            <Array as="points">
              <mxPoint x="480" y="460" />
              <mxPoint x="480" y="520" />
            </Array>
          </mxGeometry>
        </mxCell>
        <mxCell id="ND9n42p7rbxdLXG1xanT-32" value="좋아요 수" style="ellipse;whiteSpace=wrap;html=1;" parent="1" vertex="1">
          <mxGeometry x="500" y="430" width="80" height="60" as="geometry" />
        </mxCell>
        <mxCell id="2rQUQkz2bnJ6oHDl-8J2-7" style="edgeStyle=orthogonalEdgeStyle;rounded=1;orthogonalLoop=1;jettySize=auto;html=1;entryX=0.25;entryY=1;entryDx=0;entryDy=0;endArrow=none;endFill=0;" edge="1" parent="1" source="2rQUQkz2bnJ6oHDl-8J2-1" target="ND9n42p7rbxdLXG1xanT-4">
          <mxGeometry relative="1" as="geometry">
            <Array as="points">
              <mxPoint x="310" y="670" />
              <mxPoint x="360" y="670" />
            </Array>
          </mxGeometry>
        </mxCell>
        <mxCell id="2rQUQkz2bnJ6oHDl-8J2-1" value="한 문장" style="ellipse;whiteSpace=wrap;html=1;" vertex="1" parent="1">
          <mxGeometry x="270" y="690" width="80" height="60" as="geometry" />
        </mxCell>
        <mxCell id="2rQUQkz2bnJ6oHDl-8J2-8" style="edgeStyle=orthogonalEdgeStyle;rounded=1;orthogonalLoop=1;jettySize=auto;html=1;entryX=0.75;entryY=1;entryDx=0;entryDy=0;endArrow=none;endFill=0;" edge="1" parent="1" source="2rQUQkz2bnJ6oHDl-8J2-2" target="ND9n42p7rbxdLXG1xanT-4">
          <mxGeometry relative="1" as="geometry">
            <Array as="points">
              <mxPoint x="450" y="670" />
              <mxPoint x="400" y="670" />
            </Array>
          </mxGeometry>
        </mxCell>
        <mxCell id="2rQUQkz2bnJ6oHDl-8J2-2" value="깨달음" style="ellipse;whiteSpace=wrap;html=1;" vertex="1" parent="1">
          <mxGeometry x="410" y="690" width="80" height="60" as="geometry" />
        </mxCell>
      </root>
    </mxGraphModel>
  </diagram>
</mxfile>
